<svg width="23" height="23" viewBox="0 0 23 23" fill="none" xmlns="http://www.w3.org/2000/svg">
<path d="M16.7076 11.5H8.30902C8.11963 11.5 7.9465 11.393 7.8618 11.2236L7.75 11L4 3.5H20.6451C21.0275 3.5 21.2683 3.91183 21.0809 4.24513L17.1434 11.2451C17.0548 11.4026 16.8882 11.5 16.7076 11.5Z" fill="#F48138"/>
<path d="M1 1.5H2.69098C2.88037 1.5 3.0535 1.607 3.1382 1.77639L4 3.5M4 3.5H20.6451C21.0275 3.5 21.2683 3.91183 21.0809 4.24513L17.1434 11.2451C17.0548 11.4026 16.8882 11.5 16.7076 11.5H8.30902C8.11963 11.5 7.9465 11.393 7.8618 11.2236L7.75 11M4 3.5L7.75 11M7.75 11L5.40753 15.259C5.22425 15.5923 5.46533 16 5.84564 16H19.5" stroke="#F48138" stroke-width="2" stroke-linecap="round"/>
<circle cx="7.25" cy="20.25" r="1.75" fill="#F48138" stroke="#F48138"/>
<circle cx="17.25" cy="20.25" r="1.75" fill="#F48138" stroke="#F48138"/>
</svg>
