<svg width="22" height="23" viewBox="0 0 22 23" fill="none" xmlns="http://www.w3.org/2000/svg">
<path d="M15.8303 11.5H8.55902C8.21641 11.5 7.90322 11.3064 7.75 11L4 3.5H18.0803C19.61 3.5 20.5734 5.14731 19.8235 6.48052L17.5735 10.4805C17.2192 11.1103 16.5529 11.5 15.8303 11.5Z" fill="#F48138"/>
<path d="M1 1.5H1.76393C2.52148 1.5 3.214 1.928 3.55279 2.60557L4 3.5M4 3.5H18.0803C19.61 3.5 20.5734 5.14731 19.8235 6.48052L17.5735 10.4805C17.2192 11.1103 16.5529 11.5 15.8303 11.5H8.55902C8.21641 11.5 7.90322 11.3064 7.75 11V11M4 3.5L7.75 11M7.75 11L6.63011 13.0362C5.89701 14.3691 6.86134 16 8.38254 16H19.5" stroke="#F48138" stroke-width="2" stroke-linecap="round"/>
<circle cx="7.25" cy="20.25" r="1.75" fill="#F48138" stroke="#F48138"/>
<circle cx="17.25" cy="20.25" r="1.75" fill="#F48138" stroke="#F48138"/>
</svg>
