<svg width="24" height="24" viewBox="0 0 24 24" fill="none" xmlns="http://www.w3.org/2000/svg">
<path d="M20.7839 15.8779C21.3082 14.692 21.5994 13.38 21.5994 12C21.5994 6.69806 17.3013 2.39999 11.9994 2.39999C6.69748 2.39999 2.39941 6.69806 2.39941 12C2.39941 17.3019 6.69748 21.6 11.9994 21.6C13.7064 21.6 15.3094 21.1545 16.6983 20.3734L21.6012 21.5991L20.7839 15.8779Z" fill="#F48138"/>
<path d="M8.39941 8.39999H15.5994M8.39941 13.2H12.5994M21.5994 12C21.5994 13.38 21.3082 14.692 20.7839 15.8779L21.6012 21.5991L16.6983 20.3734C15.3094 21.1545 13.7064 21.6 11.9994 21.6C6.69748 21.6 2.39941 17.3019 2.39941 12C2.39941 6.69806 6.69748 2.39999 11.9994 2.39999C17.3013 2.39999 21.5994 6.69806 21.5994 12Z" stroke="#F48138" stroke-width="2.5" stroke-linecap="round" stroke-linejoin="round"/>
<path d="M8 9H16" stroke="white" stroke-width="2" stroke-linecap="round"/>
<path d="M8 14H12.5" stroke="white" stroke-width="2" stroke-linecap="round"/>
</svg>
