<svg width="21" height="23" viewBox="0 0 21 23" fill="none" xmlns="http://www.w3.org/2000/svg">
<path d="M5.78572 22H3C1.89543 22 1 21.1046 1 20V8.87161C1 8.22875 1.30901 7.62508 1.83051 7.24917L9.33051 1.843C10.0289 1.33958 10.9711 1.33958 11.6695 1.843L19.1695 7.24917C19.691 7.62508 20 8.22875 20 8.87161V20C20 21.1046 19.1046 22 18 22H15.2143C14.1097 22 13.2143 21.1046 13.2143 20V15.7826C13.2143 14.678 12.3189 13.7826 11.2143 13.7826H9.78571C8.68115 13.7826 7.78571 14.678 7.78571 15.7826V20C7.78571 21.1046 6.89029 22 5.78572 22Z" fill="#F48138" stroke="#F48138" stroke-width="2" stroke-linecap="round"/>
</svg>
