<svg width="24" height="26" viewBox="0 0 24 26" fill="none" xmlns="http://www.w3.org/2000/svg">
<path d="M3 23.0286H7.5V14.1143H16.5V23.0286H21V9.65714L12 2.97143L3 9.65714V23.0286ZM3 26C2.175 26 1.469 25.7093 0.882 25.1279C0.294 24.5455 0 23.8457 0 23.0286V9.65714C0 9.18667 0.1065 8.74095 0.3195 8.32C0.5315 7.89905 0.825 7.55238 1.2 7.28L10.2 0.594286C10.475 0.396191 10.7625 0.247619 11.0625 0.148571C11.3625 0.0495237 11.675 0 12 0C12.325 0 12.6375 0.0495237 12.9375 0.148571C13.2375 0.247619 13.525 0.396191 13.8 0.594286L22.8 7.28C23.175 7.55238 23.469 7.89905 23.682 8.32C23.894 8.74095 24 9.18667 24 9.65714V23.0286C24 23.8457 23.7065 24.5455 23.1195 25.1279C22.5315 25.7093 21.825 26 21 26H13.5V17.0857H10.5V26H3Z" fill="#757575"/>
</svg>
